OpenSans-ExtraBold.ufo
<glyph name="F" format="2">
	<unicode hex="0046"/>
	<advance width="1104"/>
	<outline>
		<contour>
			<point x="547" y="0" type="line"/>
			<point x="547" y="549" type="line"/>
			<point x="985" y="549" type="line"/>
			<point x="985" y="866" type="line"/>
			<point x="547" y="866" type="line"/>
			<point x="547" y="1145" type="line"/>
			<point x="1022" y="1145" type="line"/>
			<point x="1022" y="1462" type="line"/>
			<point x="158" y="1462" type="line"/>
			<point x="158" y="0" type="line"/>
		</contour>
	</outline>
	<anchor name="bottom" x="553" y="0"/>
	<anchor name="top" x="590" y="1462"/>
	<anchor name="topright" x="1063" y="1462"/>
</glyph>
<glyph name="N" format="2">
	<unicode hex="004E"/>
	<advance width="1708"/>
	<outline>
		<contour>
			<point x="1550" y="0" type="line"/>
			<point x="1550" y="1462" type="line"/>
			<point x="1198" y="1462" type="line"/>
			<point x="1198" y="801" type="line" smooth="yes"/>
			<point x="1198" y="700"/>
			<point x="1206" y="541"/>
			<point x="1212" y="446" type="curve"/>
			<point x="1206" y="446" type="line"/>
			<point x="674" y="1462" type="line"/>
			<point x="158" y="1462" type="line"/>
			<point x="158" y="0" type="line"/>
			<point x="508" y="0" type="line"/>
			<point x="508" y="659" type="line" smooth="yes"/>
			<point x="508" y="768"/>
			<point x="498" y="936"/>
			<point x="489" y="1030" type="curve"/>
			<point x="498" y="1030" type="line"/>
			<point x="1032" y="0" type="line"/>
		</contour>
	</outline>
	<anchor name="bottom" x="854" y="0"/>
	<anchor name="top" x="854" y="1462"/>
	<anchor name="topright" x="1667" y="1462"/>
</glyph>
<glyph name="T" format="2">
	<unicode hex="0054"/>
	<advance width="1210"/>
	<outline>
		<contour>
			<point x="803" y="0" type="line"/>
			<point x="803" y="1139" type="line"/>
			<point x="1159" y="1139" type="line"/>
			<point x="1159" y="1462" type="line"/>
			<point x="51" y="1462" type="line"/>
			<point x="51" y="1139" type="line"/>
			<point x="408" y="1139" type="line"/>
			<point x="408" y="0" type="line"/>
		</contour>
	</outline>
	<anchor name="bottom" x="606" y="0"/>
	<anchor name="center" x="606" y="731"/>
	<anchor name="top" x="606" y="1462"/>
	<anchor name="topright" x="1169" y="1462"/>
</glyph>
<glyph name="Z" format="2">
	<unicode hex="005A"/>
	<advance width="1251"/>
	<outline>
		<contour>
			<point x="1200" y="0" type="line"/>
			<point x="1200" y="319" type="line"/>
			<point x="551" y="319" type="line"/>
			<point x="1184" y="1219" type="line"/>
			<point x="1184" y="1462" type="line"/>
			<point x="76" y="1462" type="line"/>
			<point x="76" y="1143" type="line"/>
			<point x="694" y="1143" type="line"/>
			<point x="61" y="244" type="line"/>
			<point x="61" y="0" type="line"/>
		</contour>
	</outline>
	<anchor name="bottom" x="647" y="0"/>
	<anchor name="top" x="645" y="1462"/>
	<anchor name="topright" x="1210" y="1462"/>
</glyph>
<glyph name="v" format="2">
	<unicode hex="0076"/>
	<advance width="1251"/>
	<outline>
		<contour>
			<point x="432" y="0" type="line"/>
			<point x="819" y="0" type="line"/>
			<point x="1251" y="1133" type="line"/>
			<point x="844" y="1133" type="line"/>
			<point x="643" y="461" type="line"/>
			<point x="637" y="438"/>
			<point x="625" y="393"/>
			<point x="625" y="348" type="curve"/>
			<point x="618" y="348" type="line"/>
			<point x="618" y="391"/>
			<point x="604" y="451"/>
			<point x="600" y="463" type="curve"/>
			<point x="408" y="1133" type="line"/>
			<point x="0" y="1133" type="line"/>
		</contour>
	</outline>
	<anchor name="bottom" x="629" y="0"/>
	<anchor name="top" x="623" y="1133"/>
	<anchor name="topright" x="1210" y="1133"/>
</glyph>
<glyph name="bar" format="2">
	<unicode hex="007C"/>
	<advance width="1042"/>
	<outline>
		<contour>
			<point x="387" y="1556" type="line"/>
			<point x="387" y="-446" type="line"/>
			<point x="655" y="-446" type="line"/>
			<point x="655" y="1556" type="line"/>
		</contour>
	</outline>
</glyph>
<glyph name="periodcentered" format="2">
	<unicode hex="00B7"/>
	<advance width="592"/>
	<outline>
		<contour>
			<point x="86" y="723" type="curve" smooth="yes"/>
			<point x="86" y="588"/>
			<point x="182" y="532"/>
			<point x="299" y="532" type="curve" smooth="yes"/>
			<point x="410" y="532"/>
			<point x="504" y="588"/>
			<point x="504" y="723" type="curve" smooth="yes"/>
			<point x="504" y="864"/>
			<point x="410" y="915"/>
			<point x="299" y="915" type="curve" smooth="yes"/>
			<point x="182" y="915"/>
			<point x="86" y="864"/>
		</contour>
	</outline>
</glyph>
<glyph name="Aring" format="2">
	<unicode hex="00C5"/>
	<advance width="1487"/>
	<outline>
		<contour>
			<point x="1055" y="0" type="line"/>
			<point x="1487" y="0" type="line"/>
			<point x="1004" y="1468" type="line"/>
			<point x="477" y="1468" type="line"/>
			<point x="0" y="0" type="line"/>
			<point x="434" y="0" type="line"/>
			<point x="508" y="274" type="line"/>
			<point x="983" y="274" type="line"/>
		</contour>
		<contour>
			<point x="901" y="598" type="line"/>
			<point x="590" y="598" type="line"/>
			<point x="653" y="838" type="line" smooth="yes"/>
			<point x="678" y="934"/>
			<point x="725" y="1126"/>
			<point x="743" y="1227" type="curve"/>
			<point x="762" y="1126"/>
			<point x="817" y="915"/>
			<point x="838" y="838" type="curve" smooth="yes"/>
		</contour>
		<contour>
			<point x="737" y="1303" type="curve" smooth="yes"/>
			<point x="889" y="1303"/>
			<point x="1009" y="1399"/>
			<point x="1009" y="1557" type="curve" smooth="yes"/>
			<point x="1009" y="1713"/>
			<point x="887" y="1809"/>
			<point x="737" y="1809" type="curve" smooth="yes"/>
			<point x="579" y="1809"/>
			<point x="473" y="1713"/>
			<point x="473" y="1555" type="curve" smooth="yes"/>
			<point x="473" y="1399"/>
			<point x="579" y="1303"/>
		</contour>
		<contour>
			<point x="737" y="1471" type="curve" smooth="yes"/>
			<point x="682" y="1471"/>
			<point x="653" y="1506"/>
			<point x="653" y="1555" type="curve" smooth="yes"/>
			<point x="653" y="1606"/>
			<point x="690" y="1639"/>
			<point x="737" y="1639" type="curve" smooth="yes"/>
			<point x="784" y="1639"/>
			<point x="821" y="1606"/>
			<point x="821" y="1555" type="curve" smooth="yes"/>
			<point x="821" y="1506"/>
			<point x="784" y="1471"/>
		</contour>
	</outline>
	<anchor name="bottom" x="743" y="0"/>
	<anchor name="top" x="743" y="1808"/>
</glyph>
<glyph name="adieresis" format="2">
	<unicode hex="00E4"/>
	<advance width="1276"/>
	<outline>
		<contour>
			<point x="688" y="1153" type="curve" smooth="yes"/>
			<point x="483" y="1153"/>
			<point x="319" y="1118"/>
			<point x="188" y="1051" type="curve"/>
			<point x="301" y="793" type="line"/>
			<point x="412" y="842"/>
			<point x="526" y="877"/>
			<point x="616" y="877" type="curve" smooth="yes"/>
			<point x="700" y="877"/>
			<point x="754" y="838"/>
			<point x="754" y="737" type="curve" smooth="yes"/>
			<point x="754" y="721" type="line"/>
			<point x="565" y="715" type="line"/>
			<point x="246" y="700"/>
			<point x="74" y="588"/>
			<point x="74" y="346" type="curve" smooth="yes"/>
			<point x="74" y="98"/>
			<point x="221" y="-20"/>
			<point x="418" y="-20" type="curve" smooth="yes"/>
			<point x="606" y="-20"/>
			<point x="694" y="29"/>
			<point x="791" y="150" type="curve"/>
			<point x="799" y="150" type="line"/>
			<point x="874" y="0" type="line"/>
			<point x="1145" y="0" type="line"/>
			<point x="1145" y="743" type="line" smooth="yes"/>
			<point x="1145" y="1006"/>
			<point x="975" y="1153"/>
		</contour>
		<contour>
			<point x="756" y="506" type="line"/>
			<point x="756" y="418" type="line" smooth="yes"/>
			<point x="756" y="322"/>
			<point x="678" y="256"/>
			<point x="584" y="256" type="curve" smooth="yes"/>
			<point x="516" y="256"/>
			<point x="471" y="291"/>
			<point x="471" y="369" type="curve" smooth="yes"/>
			<point x="471" y="451"/>
			<point x="522" y="496"/>
			<point x="666" y="502" type="curve" smooth="yes"/>
		</contour>
		<contour>
			<point x="227" y="1413" type="curve" smooth="yes"/>
			<point x="227" y="1307"/>
			<point x="301" y="1257"/>
			<point x="397" y="1257" type="curve" smooth="yes"/>
			<point x="489" y="1257"/>
			<point x="569" y="1307"/>
			<point x="569" y="1413" type="curve" smooth="yes"/>
			<point x="569" y="1522"/>
			<point x="489" y="1571"/>
			<point x="397" y="1571" type="curve" smooth="yes"/>
			<point x="301" y="1571"/>
			<point x="227" y="1522"/>
		</contour>
		<contour>
			<point x="706" y="1413" type="curve" smooth="yes"/>
			<point x="706" y="1307"/>
			<point x="780" y="1257"/>
			<point x="878" y="1257" type="curve" smooth="yes"/>
			<point x="971" y="1257"/>
			<point x="1051" y="1307"/>
			<point x="1051" y="1413" type="curve" smooth="yes"/>
			<point x="1051" y="1522"/>
			<point x="971" y="1571"/>
			<point x="878" y="1571" type="curve" smooth="yes"/>
			<point x="780" y="1571"/>
			<point x="706" y="1522"/>
		</contour>
	</outline>
	<anchor name="bottom" x="639" y="0"/>
	<anchor name="top" x="639" y="1571"/>
</glyph>
<glyph name="ccedilla" format="2">
	<unicode hex="00E7"/>
	<advance width="1104"/>
	<outline>
		<contour>
			<point x="651" y="-20" type="curve" smooth="yes"/>
			<point x="807" y="-20"/>
			<point x="920" y="18"/>
			<point x="1014" y="80" type="curve"/>
			<point x="1014" y="391" type="line"/>
			<point x="913" y="328"/>
			<point x="797" y="291"/>
			<point x="684" y="291" type="curve" smooth="yes"/>
			<point x="565" y="291"/>
			<point x="483" y="367"/>
			<point x="483" y="563" type="curve" smooth="yes"/>
			<point x="483" y="754"/>
			<point x="563" y="846"/>
			<point x="682" y="846" type="curve" smooth="yes"/>
			<point x="768" y="846"/>
			<point x="844" y="819"/>
			<point x="938" y="778" type="curve"/>
			<point x="1053" y="1067" type="line"/>
			<point x="946" y="1120"/>
			<point x="821" y="1153"/>
			<point x="682" y="1153" type="curve" smooth="yes"/>
			<point x="340" y="1153"/>
			<point x="86" y="973"/>
			<point x="86" y="561" type="curve" smooth="yes"/>
			<point x="86" y="158"/>
			<point x="307" y="-20"/>
		</contour>
		<contour>
			<point x="881" y="-252" type="curve" smooth="yes"/>
			<point x="881" y="-121"/>
			<point x="774" y="-80"/>
			<point x="692" y="-61" type="curve"/>
			<point x="711" y="0" type="line"/>
			<point x="516" y="0" type="line"/>
			<point x="455" y="-139" type="line"/>
			<point x="559" y="-158"/>
			<point x="600" y="-182"/>
			<point x="600" y="-229" type="curve" smooth="yes"/>
			<point x="600" y="-264"/>
			<point x="569" y="-287"/>
			<point x="518" y="-287" type="curve" smooth="yes"/>
			<point x="473" y="-287"/>
			<point x="430" y="-279"/>
			<point x="385" y="-264" type="curve"/>
			<point x="385" y="-457" type="line"/>
			<point x="434" y="-475"/>
			<point x="512" y="-492"/>
			<point x="606" y="-492" type="curve" smooth="yes"/>
			<point x="772" y="-492"/>
			<point x="881" y="-397"/>
		</contour>
	</outline>
	<anchor name="bottom" x="645" y="-492"/>
	<anchor name="top" x="600" y="1133"/>
</glyph>
<glyph name="udieresis" format="2">
	<unicode hex="00FC"/>
	<advance width="1372"/>
	<outline>
		<contour>
			<point x="1237" y="1133" type="line"/>
			<point x="846" y="1133" type="line"/>
			<point x="846" y="637" type="line" smooth="yes"/>
			<point x="846" y="412"/>
			<point x="807" y="289"/>
			<point x="659" y="289" type="curve" smooth="yes"/>
			<point x="563" y="289"/>
			<point x="524" y="367"/>
			<point x="524" y="514" type="curve" smooth="yes"/>
			<point x="524" y="1133" type="line"/>
			<point x="133" y="1133" type="line"/>
			<point x="133" y="395" type="line" smooth="yes"/>
			<point x="133" y="104"/>
			<point x="305" y="-20"/>
			<point x="528" y="-20" type="curve" smooth="yes"/>
			<point x="668" y="-20"/>
			<point x="799" y="27"/>
			<point x="870" y="141" type="curve"/>
			<point x="893" y="141" type="line"/>
			<point x="942" y="0" type="line"/>
			<point x="1237" y="0" type="line"/>
		</contour>
		<contour>
			<point x="274" y="1413" type="curve" smooth="yes"/>
			<point x="274" y="1307"/>
			<point x="348" y="1257"/>
			<point x="444" y="1257" type="curve" smooth="yes"/>
			<point x="536" y="1257"/>
			<point x="616" y="1307"/>
			<point x="616" y="1413" type="curve" smooth="yes"/>
			<point x="616" y="1522"/>
			<point x="536" y="1571"/>
			<point x="444" y="1571" type="curve" smooth="yes"/>
			<point x="348" y="1571"/>
			<point x="274" y="1522"/>
		</contour>
		<contour>
			<point x="753" y="1413" type="curve" smooth="yes"/>
			<point x="753" y="1307"/>
			<point x="827" y="1257"/>
			<point x="925" y="1257" type="curve" smooth="yes"/>
			<point x="1018" y="1257"/>
			<point x="1098" y="1307"/>
			<point x="1098" y="1413" type="curve" smooth="yes"/>
			<point x="1098" y="1522"/>
			<point x="1018" y="1571"/>
			<point x="925" y="1571" type="curve" smooth="yes"/>
			<point x="827" y="1571"/>
			<point x="753" y="1522"/>
		</contour>
	</outline>
	<anchor name="bottom" x="674" y="0"/>
	<anchor name="top" x="686" y="1571"/>
</glyph>
<glyph name="Lslash" format="2">
	<unicode hex="0141"/>
	<advance width="1247"/>
	<outline>
		<contour>
			<point x="213" y="0" type="line"/>
			<point x="1171" y="0" type="line"/>
			<point x="1171" y="319" type="line"/>
			<point x="608" y="319" type="line"/>
			<point x="608" y="725" type="line"/>
			<point x="967" y="948" type="line"/>
			<point x="819" y="1192" type="line"/>
			<point x="608" y="1061" type="line"/>
			<point x="608" y="1462" type="line"/>
			<point x="213" y="1462" type="line"/>
			<point x="213" y="817" type="line"/>
			<point x="-31" y="672" type="line"/>
			<point x="111" y="424" type="line"/>
			<point x="213" y="481" type="line"/>
		</contour>
	</outline>
	<anchor name="bottom" x="633" y="0"/>
	<anchor name="top" x="348" y="1462"/>
</glyph>
<glyph name="Tbar" format="2">
	<unicode hex="0166"/>
	<advance width="1210"/>
	<outline>
		<contour>
			<point x="408" y="0" type="line"/>
			<point x="803" y="0" type="line"/>
			<point x="803" y="547" type="line"/>
			<point x="1014" y="547" type="line"/>
			<point x="1014" y="872" type="line"/>
			<point x="803" y="872" type="line"/>
			<point x="803" y="1139" type="line"/>
			<point x="1159" y="1139" type="line"/>
			<point x="1159" y="1462" type="line"/>
			<point x="51" y="1462" type="line"/>
			<point x="51" y="1139" type="line"/>
			<point x="408" y="1139" type="line"/>
			<point x="408" y="872" type="line"/>
			<point x="201" y="872" type="line"/>
			<point x="201" y="547" type="line"/>
			<point x="408" y="547" type="line"/>
		</contour>
	</outline>
	<anchor name="bottom" x="606" y="0"/>
	<anchor name="top" x="606" y="1462"/>
</glyph>
<glyph name="uni0197" format="2">
	<unicode hex="0197"/>
	<advance width="874"/>
	<outline>
		<contour>
			<point x="829" y="1462" type="line"/>
			<point x="47" y="1462" type="line"/>
			<point x="47" y="1237" type="line"/>
			<point x="236" y="1126" type="line"/>
			<point x="236" y="885" type="line"/>
			<point x="47" y="885" type="line"/>
			<point x="47" y="553" type="line"/>
			<point x="236" y="553" type="line"/>
			<point x="236" y="336" type="line"/>
			<point x="47" y="225" type="line"/>
			<point x="47" y="0" type="line"/>
			<point x="829" y="0" type="line"/>
			<point x="829" y="225" type="line"/>
			<point x="639" y="336" type="line"/>
			<point x="639" y="553" type="line"/>
			<point x="829" y="553" type="line"/>
			<point x="829" y="885" type="line"/>
			<point x="639" y="885" type="line"/>
			<point x="639" y="1126" type="line"/>
			<point x="829" y="1237" type="line"/>
		</contour>
	</outline>
	<anchor name="bottom" x="438" y="0"/>
	<anchor name="top" x="438" y="1462"/>
</glyph>
<glyph name="uni023E" format="2">
	<unicode hex="023E"/>
	<advance width="1237"/>
	<outline>
		<component base="T"/>
		<contour>
			<point x="1280" y="1556" type="line"/>
			<point x="1085" y="1556" type="line"/>
			<point x="154" y="-154" type="line"/>
			<point x="348" y="-154" type="line"/>
		</contour>
	</outline>
	<anchor name="bottom" x="606" y="0"/>
	<anchor name="top" x="606" y="1462"/>
</glyph>
<glyph name="uni0244" format="2">
	<unicode hex="0244"/>
	<advance width="1550"/>
	<outline>
		<component base="U"/>
		<contour>
			<point x="-4" y="639" type="line"/>
			<point x="1556" y="639" type="line"/>
			<point x="1556" y="969" type="line"/>
			<point x="-4" y="969" type="line"/>
		</contour>
	</outline>
	<anchor name="bottom" x="772" y="0"/>
	<anchor name="top" x="776" y="1462"/>
</glyph>
<glyph name="uni0247" format="2">
	<unicode hex="0247"/>
	<advance width="1249"/>
	<outline>
		<component base="e"/>
		<contour>
			<point x="1098" y="1556" type="line"/>
			<point x="844" y="1556" type="line"/>
			<point x="160" y="-424" type="line"/>
			<point x="414" y="-424" type="line"/>
		</contour>
	</outline>
	<anchor name="bottom" x="682" y="-424"/>
	<anchor name="top" x="633" y="1556"/>
</glyph>
<glyph name="uni0250" format="2">
	<unicode hex="0250"/>
	<advance width="1276"/>
	<outline>
		<contour>
			<point x="588" y="-20" type="curve" smooth="yes"/>
			<point x="793" y="-20"/>
			<point x="957" y="15"/>
			<point x="1088" y="82" type="curve"/>
			<point x="975" y="340" type="line"/>
			<point x="864" y="291"/>
			<point x="750" y="256"/>
			<point x="660" y="256" type="curve" smooth="yes"/>
			<point x="576" y="256"/>
			<point x="522" y="295"/>
			<point x="522" y="396" type="curve" smooth="yes"/>
			<point x="522" y="412" type="line"/>
			<point x="711" y="418" type="line"/>
			<point x="1030" y="433"/>
			<point x="1202" y="545"/>
			<point x="1202" y="787" type="curve" smooth="yes"/>
			<point x="1202" y="1035"/>
			<point x="1055" y="1153"/>
			<point x="858" y="1153" type="curve" smooth="yes"/>
			<point x="670" y="1153"/>
			<point x="582" y="1104"/>
			<point x="485" y="983" type="curve"/>
			<point x="477" y="983" type="line"/>
			<point x="402" y="1133" type="line"/>
			<point x="131" y="1133" type="line"/>
			<point x="131" y="390" type="line" smooth="yes"/>
			<point x="131" y="127"/>
			<point x="301" y="-20"/>
		</contour>
		<contour>
			<point x="520" y="627" type="line"/>
			<point x="520" y="715" type="line" smooth="yes"/>
			<point x="520" y="811"/>
			<point x="598" y="877"/>
			<point x="692" y="877" type="curve" smooth="yes"/>
			<point x="760" y="877"/>
			<point x="805" y="842"/>
			<point x="805" y="764" type="curve" smooth="yes"/>
			<point x="805" y="682"/>
			<point x="754" y="637"/>
			<point x="610" y="631" type="curve" smooth="yes"/>
		</contour>
	</outline>
	<anchor name="bottom" x="639" y="0"/>
	<anchor name="top" x="639" y="1133"/>
</glyph>
<glyph name="uni0252" format="2">
	<unicode hex="0252"/>
	<advance width="1331"/>
	<outline>
		<contour>
			<point x="809" y="1153" type="curve" smooth="yes"/>
			<point x="637" y="1153"/>
			<point x="547" y="1067"/>
			<point x="487" y="986" type="curve"/>
			<point x="475" y="986" type="line"/>
			<point x="413" y="1113"/>
			<point x="325" y="1153"/>
			<point x="164" y="1153" type="curve" smooth="yes"/>
			<point x="119" y="1153"/>
			<point x="28" y="1139"/>
			<point x="8" y="1127" type="curve"/>
			<point x="8" y="836" type="line"/>
			<point x="18" y="840"/>
			<point x="49" y="846"/>
			<point x="67" y="846" type="curve" smooth="yes"/>
			<point x="110" y="846"/>
			<point x="149" y="822"/>
			<point x="149" y="725" type="curve" smooth="yes"/>
			<point x="149" y="0" type="line"/>
			<point x="471" y="0" type="line"/>
			<point x="522" y="121" type="line"/>
			<point x="532" y="121" type="line"/>
			<point x="592" y="46"/>
			<point x="667" y="-20"/>
			<point x="819" y="-20" type="curve" smooth="yes"/>
			<point x="1075" y="-20"/>
			<point x="1245" y="181"/>
			<point x="1245" y="568" type="curve" smooth="yes"/>
			<point x="1245" y="955"/>
			<point x="1081" y="1153"/>
		</contour>
		<contour>
			<point x="676" y="846" type="curve" smooth="yes"/>
			<point x="786" y="846"/>
			<point x="850" y="764"/>
			<point x="850" y="570" type="curve" smooth="yes"/>
			<point x="850" y="385"/>
			<point x="786" y="295"/>
			<point x="674" y="295" type="curve" smooth="yes"/>
			<point x="565" y="295"/>
			<point x="510" y="375"/>
			<point x="510" y="545" type="curve" smooth="yes"/>
			<point x="510" y="592" type="line" smooth="yes"/>
			<point x="510" y="760"/>
			<point x="573" y="846"/>
		</contour>
	</outline>
	<anchor name="bottom" x="666" y="0"/>
	<anchor name="top" x="666" y="1133"/>
</glyph>
<glyph name="uni0265" format="2">
	<unicode hex="0265"/>
	<advance width="1372"/>
	<outline>
		<contour>
			<point x="846" y="-423" type="line"/>
			<point x="1237" y="-423" type="line"/>
			<point x="1237" y="1133" type="line"/>
			<point x="846" y="1133" type="line"/>
			<point x="846" y="635" type="line" smooth="yes"/>
			<point x="846" y="412"/>
			<point x="801" y="287"/>
			<point x="659" y="287" type="curve" smooth="yes"/>
			<point x="567" y="287"/>
			<point x="524" y="365"/>
			<point x="524" y="515" type="curve" smooth="yes"/>
			<point x="524" y="1133" type="line"/>
			<point x="131" y="1133" type="line"/>
			<point x="131" y="396" type="line" smooth="yes"/>
			<point x="131" y="103"/>
			<point x="309" y="-20"/>
			<point x="532" y="-20" type="curve" smooth="yes"/>
			<point x="667" y="-20"/>
			<point x="770" y="23"/>
			<point x="844" y="140" type="curve"/>
			<point x="862" y="140" type="line"/>
			<point x="856" y="80"/>
			<point x="846" y="-34"/>
			<point x="846" y="-202" type="curve" smooth="yes"/>
		</contour>
	</outline>
	<anchor name="bottom" x="686" y="-424"/>
	<anchor name="top" x="686" y="1133"/>
</glyph>
<glyph name="uni0268" format="2">
	<unicode hex="0268"/>
	<advance width="666"/>
	<outline>
		<contour>
			<point x="676" y="690" type="line"/>
			<point x="-10" y="690" type="line"/>
			<point x="-10" y="442" type="line"/>
			<point x="676" y="442" type="line"/>
		</contour>
		<contour>
			<point x="528" y="1133" type="line"/>
			<point x="137" y="1133" type="line"/>
			<point x="137" y="0" type="line"/>
			<point x="528" y="0" type="line"/>
		</contour>
		<contour>
			<point x="334" y="1589" type="curve" smooth="yes"/>
			<point x="219" y="1589"/>
			<point x="127" y="1554"/>
			<point x="127" y="1415" type="curve" smooth="yes"/>
			<point x="127" y="1280"/>
			<point x="219" y="1243"/>
			<point x="334" y="1243" type="curve" smooth="yes"/>
			<point x="446" y="1243"/>
			<point x="543" y="1280"/>
			<point x="543" y="1415" type="curve" smooth="yes"/>
			<point x="543" y="1554"/>
			<point x="446" y="1589"/>
		</contour>
	</outline>
	<anchor name="bottom" x="340" y="0"/>
	<anchor name="top" x="334" y="1589"/>
</glyph>
<glyph name="iotaLatin" format="2">
	<unicode hex="0269"/>
	<advance width="891"/>
	<outline>
		<contour>
			<point x="524" y="1133" type="line"/>
			<point x="133" y="1133" type="line"/>
			<point x="133" y="371" type="line" smooth="yes"/>
			<point x="133" y="66"/>
			<point x="311" y="-20"/>
			<point x="541" y="-20" type="curve" smooth="yes"/>
			<point x="672" y="-20"/>
			<point x="772" y="6"/>
			<point x="850" y="43" type="curve"/>
			<point x="850" y="330" type="line"/>
			<point x="768" y="301"/>
			<point x="715" y="287"/>
			<point x="641" y="287" type="curve" smooth="yes"/>
			<point x="582" y="287"/>
			<point x="524" y="305"/>
			<point x="524" y="389" type="curve" smooth="yes"/>
		</contour>
	</outline>
	<anchor name="bottom" x="500" y="0"/>
	<anchor name="top" x="344" y="1133"/>
</glyph>
<glyph name="uni026A" format="2">
	<unicode hex="026A"/>
	<advance width="793"/>
	<outline>
		<contour>
			<point x="780" y="1133" type="line"/>
			<point x="10" y="1133" type="line"/>
			<point x="10" y="948" type="line"/>
			<point x="199" y="831" type="line"/>
			<point x="199" y="301" type="line"/>
			<point x="10" y="184" type="line"/>
			<point x="10" y="0" type="line"/>
			<point x="780" y="0" type="line"/>
			<point x="780" y="184" type="line"/>
			<point x="594" y="301" type="line"/>
			<point x="594" y="831" type="line"/>
			<point x="780" y="948" type="line"/>
		</contour>
	</outline>
	<anchor name="bottom" x="397" y="0"/>
	<anchor name="top" x="397" y="1133"/>
</glyph>
<glyph name="uni0272" format="2">
	<unicode hex="0272"/>
	<advance width="1407"/>
	<outline>
		<contour>
			<point x="852" y="1153" type="curve" smooth="yes"/>
			<point x="731" y="1153"/>
			<point x="594" y="1108"/>
			<point x="522" y="991" type="curve"/>
			<point x="502" y="991" type="line"/>
			<point x="451" y="1133" type="line"/>
			<point x="150" y="1133" type="line"/>
			<point x="150" y="-100" type="line" smooth="yes"/>
			<point x="150" y="-143"/>
			<point x="115" y="-178"/>
			<point x="63" y="-178" type="curve" smooth="yes"/>
			<point x="20" y="-178"/>
			<point x="-4" y="-170"/>
			<point x="-43" y="-158" type="curve"/>
			<point x="-43" y="-455" type="line"/>
			<point x="4" y="-483"/>
			<point x="84" y="-492"/>
			<point x="158" y="-492" type="curve" smooth="yes"/>
			<point x="459" y="-492"/>
			<point x="547" y="-305"/>
			<point x="547" y="-98" type="curve" smooth="yes"/>
			<point x="547" y="494" type="line" smooth="yes"/>
			<point x="547" y="711"/>
			<point x="582" y="840"/>
			<point x="729" y="840" type="curve" smooth="yes"/>
			<point x="823" y="840"/>
			<point x="862" y="764"/>
			<point x="862" y="631" type="curve" smooth="yes"/>
			<point x="862" y="0" type="line"/>
			<point x="1262" y="0" type="line"/>
			<point x="1262" y="737" type="line" smooth="yes"/>
			<point x="1262" y="1034"/>
			<point x="1087" y="1153"/>
		</contour>
	</outline>
	<anchor name="bottom" x="705" y="-492"/>
	<anchor name="top" x="705" y="1133"/>
	<anchor name="topright" x="1303" y="1133"/>
</glyph>
<glyph name="uni0280" format="2">
	<unicode hex="0280"/>
	<advance width="1323"/>
	<outline>
		<contour>
			<point x="172" y="0" type="line"/>
			<point x="569" y="0" type="line"/>
			<point x="569" y="397" type="line"/>
			<point x="647" y="397" type="line"/>
			<point x="893" y="0" type="line"/>
			<point x="1325" y="0" type="line"/>
			<point x="991" y="459" type="line"/>
			<point x="1126" y="514"/>
			<point x="1217" y="608"/>
			<point x="1217" y="784" type="curve" smooth="yes"/>
			<point x="1217" y="1024"/>
			<point x="1022" y="1126"/>
			<point x="741" y="1126" type="curve" smooth="yes"/>
			<point x="172" y="1126" type="line"/>
		</contour>
		<contour>
			<point x="569" y="653" type="line"/>
			<point x="569" y="858" type="line"/>
			<point x="707" y="858" type="line" smooth="yes"/>
			<point x="795" y="858"/>
			<point x="829" y="813"/>
			<point x="829" y="766" type="curve" smooth="yes"/>
			<point x="829" y="698"/>
			<point x="778" y="653"/>
			<point x="684" y="653" type="curve" smooth="yes"/>
		</contour>
	</outline>
	<anchor name="bottom" x="662" y="0"/>
	<anchor name="top" x="662" y="1133"/>
</glyph>
<glyph name="uni0281" format="2">
	<unicode hex="0281"/>
	<advance width="1323"/>
	<outline>
		<contour>
			<point x="172" y="1133" type="line"/>
			<point x="569" y="1133" type="line"/>
			<point x="569" y="736" type="line"/>
			<point x="647" y="736" type="line"/>
			<point x="893" y="1133" type="line"/>
			<point x="1325" y="1133" type="line"/>
			<point x="991" y="674" type="line"/>
			<point x="1126" y="619"/>
			<point x="1217" y="525"/>
			<point x="1217" y="349" type="curve" smooth="yes"/>
			<point x="1217" y="109"/>
			<point x="1022" y="7"/>
			<point x="741" y="7" type="curve" smooth="yes"/>
			<point x="172" y="7" type="line"/>
		</contour>
		<contour>
			<point x="569" y="480" type="line"/>
			<point x="569" y="275" type="line"/>
			<point x="707" y="275" type="line" smooth="yes"/>
			<point x="795" y="275"/>
			<point x="829" y="320"/>
			<point x="829" y="367" type="curve" smooth="yes"/>
			<point x="829" y="435"/>
			<point x="778" y="480"/>
			<point x="684" y="480" type="curve" smooth="yes"/>
		</contour>
	</outline>
	<anchor name="bottom" x="662" y="0"/>
	<anchor name="top" x="662" y="1133"/>
</glyph>
<glyph name="uni028C" format="2">
	<unicode hex="028C"/>
	<advance width="1251"/>
	<outline>
		<contour>
			<point x="819" y="1133" type="line"/>
			<point x="432" y="1133" type="line"/>
			<point x="0" y="0" type="line"/>
			<point x="407" y="0" type="line"/>
			<point x="608" y="672" type="line"/>
			<point x="614" y="695"/>
			<point x="626" y="740"/>
			<point x="626" y="785" type="curve"/>
			<point x="633" y="785" type="line"/>
			<point x="633" y="742"/>
			<point x="647" y="682"/>
			<point x="651" y="670" type="curve"/>
			<point x="843" y="0" type="line"/>
			<point x="1251" y="0" type="line"/>
		</contour>
	</outline>
	<anchor name="bottom" x="627" y="0"/>
	<anchor name="top" x="627" y="1133"/>
</glyph>
<glyph name="uni028F" format="2">
	<unicode hex="028F"/>
	<advance width="1270"/>
	<outline>
		<contour>
			<point x="1280" y="1133" type="line"/>
			<point x="829" y="1133" type="line"/>
			<point x="639" y="768" type="line"/>
			<point x="440" y="1133" type="line"/>
			<point x="-10" y="1133" type="line"/>
			<point x="436" y="406" type="line"/>
			<point x="436" y="0" type="line"/>
			<point x="834" y="0" type="line"/>
			<point x="834" y="406" type="line"/>
		</contour>
	</outline>
	<anchor name="bottom" x="635" y="0"/>
	<anchor name="top" x="635" y="1133"/>
</glyph>
<glyph name="uni0292" format="2">
	<unicode hex="0292"/>
	<advance width="1243"/>
	<outline>
		<contour>
			<point x="1126" y="1133" type="line"/>
			<point x="82" y="1133" type="line"/>
			<point x="82" y="834" type="line"/>
			<point x="623" y="834" type="line"/>
			<point x="260" y="516" type="line"/>
			<point x="260" y="266" type="line"/>
			<point x="395" y="266" type="line" smooth="yes"/>
			<point x="715" y="266"/>
			<point x="768" y="162"/>
			<point x="768" y="41" type="curve" smooth="yes"/>
			<point x="768" y="-82"/>
			<point x="690" y="-180"/>
			<point x="477" y="-180" type="curve" smooth="yes"/>
			<point x="315" y="-180"/>
			<point x="152" y="-137"/>
			<point x="20" y="-78" type="curve"/>
			<point x="20" y="-414" type="line"/>
			<point x="154" y="-463"/>
			<point x="283" y="-492"/>
			<point x="494" y="-492" type="curve" smooth="yes"/>
			<point x="965" y="-492"/>
			<point x="1165" y="-260"/>
			<point x="1165" y="72" type="curve" smooth="yes"/>
			<point x="1165" y="317"/>
			<point x="1008" y="498"/>
			<point x="705" y="524" type="curve"/>
			<point x="1126" y="891" type="line"/>
		</contour>
	</outline>
	<anchor name="bottom" x="623" y="-492"/>
	<anchor name="top" x="623" y="1133"/>
</glyph>
<glyph name="uni0295" format="2">
	<unicode hex="0295"/>
	<advance width="1047"/>
	<outline>
		<contour>
			<point x="564" y="1567" type="curve" smooth="yes"/>
			<point x="746" y="1567"/>
			<point x="900" y="1513"/>
			<point x="1049" y="1432" type="curve"/>
			<point x="908" y="1149" type="line"/>
			<point x="857" y="1178"/>
			<point x="728" y="1249"/>
			<point x="605" y="1249" type="curve" smooth="yes"/>
			<point x="527" y="1249"/>
			<point x="447" y="1186"/>
			<point x="447" y="1110" type="curve" smooth="yes"/>
			<point x="447" y="1040"/>
			<point x="488" y="883"/>
			<point x="811" y="770" type="curve"/>
			<point x="811" y="0" type="line"/>
			<point x="408" y="0" type="line"/>
			<point x="408" y="606" type="line"/>
			<point x="129" y="756"/>
			<point x="43" y="918"/>
			<point x="43" y="1126" type="curve" smooth="yes"/>
			<point x="43" y="1366"/>
			<point x="242" y="1567"/>
		</contour>
	</outline>
	<anchor name="bottom" x="524" y="0"/>
	<anchor name="top" x="524" y="1567"/>
</glyph>
<glyph name="uni029F" format="2">
	<unicode hex="029F"/>
	<advance width="1014"/>
	<outline>
		<contour>
			<point x="135" y="0" type="line"/>
			<point x="965" y="0" type="line"/>
			<point x="965" y="295" type="line"/>
			<point x="526" y="295" type="line"/>
			<point x="526" y="1133" type="line"/>
			<point x="135" y="1133" type="line"/>
		</contour>
	</outline>
	<anchor name="bottom" x="508" y="0"/>
	<anchor name="top" x="508" y="1133"/>
</glyph>
<glyph name="uni02C8" format="2">
	<unicode hex="02C8"/>
	<advance width="395"/>
	<outline>
		<contour>
			<point x="313" y="1589" type="line"/>
			<point x="82" y="1589" type="line"/>
			<point x="82" y="1016" type="line"/>
			<point x="313" y="1016" type="line"/>
		</contour>
	</outline>
	<anchor name="_top" x="197" y="928"/>
	<anchor name="top" x="203" y="1589"/>
</glyph>
<glyph name="uni02F0" format="2">
	<unicode hex="02F0"/>
	<advance width="848"/>
	<outline>
		<contour>
			<point x="82" y="-492" type="line"/>
			<point x="242" y="-492" type="line"/>
			<point x="424" y="-221" type="line"/>
			<point x="604" y="-492" type="line"/>
			<point x="766" y="-492" type="line"/>
			<point x="473" y="-41" type="line"/>
			<point x="373" y="-41" type="line"/>
		</contour>
	</outline>
</glyph>
<glyph name="uni02F7" format="2">
	<unicode hex="02F7"/>
	<advance width="1006"/>
	<outline>
		<contour>
			<point x="82" y="-449" type="curve"/>
			<point x="262" y="-449" type="line"/>
			<point x="279" y="-361"/>
			<point x="309" y="-351"/>
			<point x="334" y="-351" type="curve" smooth="yes"/>
			<point x="434" y="-351"/>
			<point x="557" y="-447"/>
			<point x="678" y="-447" type="curve" smooth="yes"/>
			<point x="809" y="-447"/>
			<point x="907" y="-351"/>
			<point x="924" y="-105" type="curve"/>
			<point x="741" y="-105" type="line"/>
			<point x="727" y="-191"/>
			<point x="694" y="-203"/>
			<point x="670" y="-203" type="curve" smooth="yes"/>
			<point x="567" y="-203"/>
			<point x="436" y="-107"/>
			<point x="334" y="-107" type="curve" smooth="yes"/>
			<point x="186" y="-107"/>
			<point x="98" y="-199"/>
		</contour>
	</outline>
</glyph>
<glyph name="acutecomb" format="2">
	<unicode hex="0301"/>
	<outline>
		<contour>
			<point x="-105" y="1569" type="line"/>
			<point x="-533" y="1569" type="line"/>
			<point x="-600" y="1477"/>
			<point x="-727" y="1346"/>
			<point x="-797" y="1270" type="curve"/>
			<point x="-797" y="1241" type="line"/>
			<point x="-537" y="1241" type="line"/>
			<point x="-426" y="1311"/>
			<point x="-201" y="1470"/>
			<point x="-105" y="1548" type="curve"/>
		</contour>
	</outline>
	<anchor name="_top" x="-594" y="1133"/>
	<anchor name="top" x="-594" y="1567"/>
</glyph>
<glyph name="circumflexcomb" format="2">
	<unicode hex="0302"/>
	<outline>
		<contour>
			<point x="186" y="1569" type="curve"/>
			<point x="-207" y="1569" type="line"/>
			<point x="-268" y="1475"/>
			<point x="-387" y="1343"/>
			<point x="-465" y="1270" type="curve"/>
			<point x="-465" y="1241" type="line"/>
			<point x="-207" y="1241" type="line"/>
			<point x="-135" y="1286"/>
			<point x="-84" y="1329"/>
			<point x="-12" y="1391" type="curve"/>
			<point x="59" y="1329"/>
			<point x="117" y="1282"/>
			<point x="188" y="1241" type="curve"/>
			<point x="442" y="1241" type="line"/>
			<point x="442" y="1270" type="line"/>
			<point x="373" y="1339"/>
			<point x="250" y="1475"/>
		</contour>
	</outline>
	<anchor name="_top" x="-12" y="1133"/>
	<anchor name="top" x="-12" y="1567"/>
</glyph>
<glyph name="tildecomb" format="2">
	<unicode hex="0303"/>
	<outline>
		<contour>
			<point x="-1180" y="1237" type="curve"/>
			<point x="-1000" y="1237" type="line"/>
			<point x="-983" y="1325"/>
			<point x="-953" y="1335"/>
			<point x="-928" y="1335" type="curve" smooth="yes"/>
			<point x="-828" y="1335"/>
			<point x="-705" y="1239"/>
			<point x="-584" y="1239" type="curve" smooth="yes"/>
			<point x="-453" y="1239"/>
			<point x="-355" y="1335"/>
			<point x="-338" y="1581" type="curve"/>
			<point x="-521" y="1581" type="line"/>
			<point x="-535" y="1495"/>
			<point x="-568" y="1483"/>
			<point x="-592" y="1483" type="curve" smooth="yes"/>
			<point x="-695" y="1483"/>
			<point x="-826" y="1579"/>
			<point x="-928" y="1579" type="curve" smooth="yes"/>
			<point x="-1076" y="1579"/>
			<point x="-1164" y="1487"/>
		</contour>
	</outline>
	<anchor name="_top" x="-760" y="1133"/>
	<anchor name="top" x="-760" y="1575"/>
</glyph>
<glyph name="dieresiscomb" format="2">
	<unicode hex="0308"/>
	<outline>
		<contour>
			<point x="-414" y="1413" type="curve" smooth="yes"/>
			<point x="-414" y="1307"/>
			<point x="-340" y="1257"/>
			<point x="-244" y="1257" type="curve" smooth="yes"/>
			<point x="-152" y="1257"/>
			<point x="-72" y="1307"/>
			<point x="-72" y="1413" type="curve" smooth="yes"/>
			<point x="-72" y="1522"/>
			<point x="-152" y="1571"/>
			<point x="-244" y="1571" type="curve" smooth="yes"/>
			<point x="-340" y="1571"/>
			<point x="-414" y="1522"/>
		</contour>
		<contour>
			<point x="65" y="1413" type="curve" smooth="yes"/>
			<point x="65" y="1307"/>
			<point x="139" y="1257"/>
			<point x="237" y="1257" type="curve" smooth="yes"/>
			<point x="330" y="1257"/>
			<point x="410" y="1307"/>
			<point x="410" y="1413" type="curve" smooth="yes"/>
			<point x="410" y="1522"/>
			<point x="330" y="1571"/>
			<point x="237" y="1571" type="curve" smooth="yes"/>
			<point x="139" y="1571"/>
			<point x="65" y="1522"/>
		</contour>
	</outline>
	<anchor name="_top" x="-2" y="1133"/>
	<anchor name="top" x="-2" y="1556"/>
</glyph>
<glyph name="caroncomb" format="2">
	<unicode hex="030C"/>
	<outline>
		<contour>
			<point x="-207" y="1241" type="curve"/>
			<point x="186" y="1241" type="line"/>
			<point x="250" y="1335"/>
			<point x="373" y="1470"/>
			<point x="442" y="1540" type="curve"/>
			<point x="442" y="1569" type="line"/>
			<point x="188" y="1569" type="line"/>
			<point x="117" y="1528"/>
			<point x="59" y="1481"/>
			<point x="-12" y="1419" type="curve"/>
			<point x="-84" y="1481"/>
			<point x="-135" y="1524"/>
			<point x="-207" y="1569" type="curve"/>
			<point x="-465" y="1569" type="line"/>
			<point x="-465" y="1540" type="line"/>
			<point x="-387" y="1466"/>
			<point x="-268" y="1335"/>
		</contour>
	</outline>
	<anchor name="_top" x="-12" y="1133"/>
	<anchor name="top" x="-8" y="1569"/>
</glyph>
<glyph name="gravebelowcomb" format="2">
	<unicode hex="0316"/>
	<outline>
		<contour>
			<point x="16" y="-90" type="curve"/>
			<point x="-414" y="-90" type="line"/>
			<point x="-414" y="-111" type="line"/>
			<point x="-316" y="-189"/>
			<point x="-93" y="-348"/>
			<point x="18" y="-418" type="curve"/>
			<point x="278" y="-418" type="line"/>
			<point x="278" y="-389" type="line"/>
			<point x="211" y="-313"/>
			<point x="86" y="-182"/>
		</contour>
	</outline>
	<anchor name="_bottom" x="-68" y="0"/>
	<anchor name="bottom" x="-63" y="-418"/>
</glyph>
<glyph name="acutebelowcomb" format="2">
	<unicode hex="0317"/>
	<outline>
		<contour>
			<point x="354" y="-90" type="line"/>
			<point x="-74" y="-90" type="line"/>
			<point x="-141" y="-182"/>
			<point x="-268" y="-313"/>
			<point x="-338" y="-389" type="curve"/>
			<point x="-338" y="-418" type="line"/>
			<point x="-78" y="-418" type="line"/>
			<point x="33" y="-348"/>
			<point x="258" y="-189"/>
			<point x="354" y="-111" type="curve"/>
		</contour>
	</outline>
	<anchor name="_bottom" x="8" y="0"/>
	<anchor name="bottom" x="12" y="-418"/>
</glyph>
<glyph name="cedillacomb" format="2">
	<unicode hex="0327"/>
	<outline>
		<contour>
			<point x="248" y="-252" type="curve" smooth="yes"/>
			<point x="248" y="-121"/>
			<point x="141" y="-80"/>
			<point x="59" y="-61" type="curve"/>
			<point x="78" y="0" type="line"/>
			<point x="-117" y="0" type="line"/>
			<point x="-178" y="-139" type="line"/>
			<point x="-74" y="-158"/>
			<point x="-33" y="-182"/>
			<point x="-33" y="-229" type="curve" smooth="yes"/>
			<point x="-33" y="-264"/>
			<point x="-64" y="-287"/>
			<point x="-115" y="-287" type="curve" smooth="yes"/>
			<point x="-160" y="-287"/>
			<point x="-203" y="-279"/>
			<point x="-248" y="-264" type="curve"/>
			<point x="-248" y="-457" type="line"/>
			<point x="-199" y="-475"/>
			<point x="-121" y="-492"/>
			<point x="-27" y="-492" type="curve" smooth="yes"/>
			<point x="139" y="-492"/>
			<point x="248" y="-397"/>
		</contour>
	</outline>
	<anchor name="_bottom" x="0" y="0"/>
	<anchor name="bottom" x="4" y="-492"/>
</glyph>
<glyph name="brevebelowcomb" format="2">
	<unicode hex="032E"/>
	<outline>
		<contour>
			<point x="375" y="-98" type="curve"/>
			<point x="156" y="-98" type="line"/>
			<point x="127" y="-205"/>
			<point x="55" y="-229"/>
			<point x="-33" y="-229" type="curve" smooth="yes"/>
			<point x="-145" y="-229"/>
			<point x="-194" y="-213"/>
			<point x="-223" y="-98" type="curve"/>
			<point x="-434" y="-98" type="line"/>
			<point x="-424" y="-328"/>
			<point x="-293" y="-469"/>
			<point x="-33" y="-469" type="curve" smooth="yes"/>
			<point x="215" y="-469"/>
			<point x="361" y="-321"/>
		</contour>
	</outline>
	<anchor name="_bottom" x="-31" y="0"/>
	<anchor name="bottom" x="-27" y="-469"/>
</glyph>
<glyph name="bridgeinvertedbelowcomb" format="2">
	<unicode hex="033A"/>
	<outline>
		<contour>
			<point x="365" y="-446" type="line"/>
			<point x="365" y="-98" type="line"/>
			<point x="229" y="-98" type="line"/>
			<point x="229" y="-324" type="line"/>
			<point x="-229" y="-324" type="line"/>
			<point x="-229" y="-98" type="line"/>
			<point x="-365" y="-98" type="line"/>
			<point x="-365" y="-446" type="line"/>
		</contour>
	</outline>
	<anchor name="_bottom" x="0" y="0"/>
	<anchor name="bottom" x="0" y="-446"/>
</glyph>
<glyph name="gbridgeabovecomb" format="2">
	<unicode hex="0346"/>
	<outline>
		<contour>
			<point x="-446" y="1561" type="line"/>
			<point x="-446" y="1212" type="line"/>
			<point x="-311" y="1212" type="line"/>
			<point x="-311" y="1438" type="line"/>
			<point x="311" y="1438" type="line"/>
			<point x="311" y="1212" type="line"/>
			<point x="446" y="1212" type="line"/>
			<point x="446" y="1561" type="line"/>
		</contour>
	</outline>
	<anchor name="_top" x="0" y="1133"/>
	<anchor name="top" x="4" y="1561"/>
</glyph>
<glyph name="arrowleftrightbelowcomb" format="2">
	<unicode hex="034D"/>
	<outline>
		<contour>
			<point x="-358" y="-260" type="line"/>
			<point x="-102" y="-449" type="line"/>
			<point x="-102" y="-322" type="line"/>
			<point x="102" y="-322" type="line"/>
			<point x="102" y="-449" type="line"/>
			<point x="358" y="-260" type="line"/>
			<point x="102" y="-72" type="line"/>
			<point x="102" y="-199" type="line"/>
			<point x="-102" y="-199" type="line"/>
			<point x="-102" y="-72" type="line"/>
		</contour>
	</outline>
	<anchor name="_bottom" x="0" y="0"/>
	<anchor name="bottom" x="4" y="-449"/>
</glyph>
<glyph name="Theta" format="2">
	<unicode hex="0398"/>
	<advance width="1632"/>
	<outline>
		<component base="O"/>
		<contour>
			<point x="1022" y="893" type="line"/>
			<point x="610" y="893" type="line"/>
			<point x="610" y="594" type="line"/>
			<point x="1022" y="594" type="line"/>
		</contour>
	</outline>
	<anchor name="bottom" x="815" y="0"/>
	<anchor name="top" x="817" y="1462"/>
</glyph>
<glyph name="afii10145" format="2">
	<unicode hex="040F"/>
	<advance width="1516"/>
	<outline>
		<contour>
			<point x="1358" y="0" type="line"/>
			<point x="1358" y="1462" type="line"/>
			<point x="961" y="1462" type="line"/>
			<point x="961" y="324" type="line"/>
			<point x="555" y="324" type="line"/>
			<point x="555" y="1462" type="line"/>
			<point x="158" y="1462" type="line"/>
			<point x="158" y="0" type="line"/>
			<point x="565" y="0" type="line"/>
			<point x="565" y="-455" type="line"/>
			<point x="950" y="-455" type="line"/>
			<point x="950" y="0" type="line"/>
		</contour>
	</outline>
	<anchor name="bottom" x="758" y="-455"/>
	<anchor name="top" x="758" y="1462"/>
</glyph>
<glyph name="afii10042" format="2">
	<unicode hex="0428"/>
	<advance width="2228"/>
	<outline>
		<contour>
			<point x="2071" y="0" type="line"/>
			<point x="2071" y="1462" type="line"/>
			<point x="1673" y="1462" type="line"/>
			<point x="1673" y="324" type="line"/>
			<point x="1309" y="324" type="line"/>
			<point x="1309" y="1462" type="line"/>
			<point x="920" y="1462" type="line"/>
			<point x="920" y="324" type="line"/>
			<point x="555" y="324" type="line"/>
			<point x="555" y="1462" type="line"/>
			<point x="158" y="1462" type="line"/>
			<point x="158" y="0" type="line"/>
		</contour>
	</outline>
	<anchor name="bottom" x="1114" y="0"/>
	<anchor name="top" x="1114" y="1462"/>
</glyph>
<glyph name="afii10070" format="2">
	<unicode hex="0435"/>
	<advance width="1266"/>
	<outline>
		<contour>
			<point x="645" y="1153" type="curve" smooth="yes"/>
			<point x="311" y="1153"/>
			<point x="86" y="967"/>
			<point x="86" y="559" type="curve" smooth="yes"/>
			<point x="86" y="156"/>
			<point x="340" y="-20"/>
			<point x="682" y="-20" type="curve" smooth="yes"/>
			<point x="879" y="-20"/>
			<point x="997" y="6"/>
			<point x="1106" y="63" type="curve"/>
			<point x="1106" y="344" type="line"/>
			<point x="981" y="285"/>
			<point x="870" y="258"/>
			<point x="729" y="258" type="curve" smooth="yes"/>
			<point x="569" y="258"/>
			<point x="487" y="342"/>
			<point x="481" y="461" type="curve"/>
			<point x="1180" y="461" type="line"/>
			<point x="1180" y="635" type="line" smooth="yes"/>
			<point x="1180" y="981"/>
			<point x="975" y="1153"/>
		</contour>
		<contour>
			<point x="659" y="887" type="curve" smooth="yes"/>
			<point x="766" y="887"/>
			<point x="823" y="807"/>
			<point x="825" y="707" type="curve"/>
			<point x="489" y="707" type="line"/>
			<point x="500" y="831"/>
			<point x="567" y="887"/>
		</contour>
	</outline>
	<anchor name="bottom" x="682" y="0"/>
	<anchor name="top" x="633" y="1133"/>
</glyph>
<glyph name="afii10080" format="2">
	<unicode hex="043E"/>
	<advance width="1305"/>
	<outline>
		<contour>
			<point x="1217" y="569" type="curve" smooth="yes"/>
			<point x="1217" y="944"/>
			<point x="981" y="1153"/>
			<point x="655" y="1153" type="curve" smooth="yes"/>
			<point x="301" y="1153"/>
			<point x="86" y="944"/>
			<point x="86" y="569" type="curve" smooth="yes"/>
			<point x="86" y="190"/>
			<point x="322" y="-20"/>
			<point x="649" y="-20" type="curve" smooth="yes"/>
			<point x="1001" y="-20"/>
			<point x="1217" y="190"/>
		</contour>
		<contour>
			<point x="483" y="569" type="curve" smooth="yes"/>
			<point x="483" y="762"/>
			<point x="532" y="862"/>
			<point x="651" y="862" type="curve" smooth="yes"/>
			<point x="774" y="862"/>
			<point x="819" y="762"/>
			<point x="819" y="569" type="curve" smooth="yes"/>
			<point x="819" y="375"/>
			<point x="774" y="270"/>
			<point x="653" y="270" type="curve" smooth="yes"/>
			<point x="530" y="270"/>
			<point x="483" y="375"/>
		</contour>
	</outline>
	<anchor name="bottom" x="649" y="0"/>
	<anchor name="top" x="653" y="1133"/>
</glyph>
<glyph name="afii10084" format="2">
	<unicode hex="0442"/>
	<advance width="1235"/>
	<outline>
		<contour>
			<point x="1186" y="842" type="line"/>
			<point x="1186" y="1133" type="line"/>
			<point x="49" y="1133" type="line"/>
			<point x="49" y="842" type="line"/>
			<point x="422" y="842" type="line"/>
			<point x="422" y="0" type="line"/>
			<point x="813" y="0" type="line"/>
			<point x="813" y="842" type="line"/>
		</contour>
	</outline>
	<anchor name="bottom" x="618" y="0"/>
	<anchor name="top" x="618" y="1133"/>
</glyph>
<glyph name="afii10101" format="2">
	<unicode hex="0454"/>
	<advance width="1110"/>
	<outline>
		<contour>
			<point x="655" y="-20" type="curve" smooth="yes"/>
			<point x="801" y="-20"/>
			<point x="915" y="6"/>
			<point x="1024" y="63" type="curve"/>
			<point x="1024" y="350" type="line"/>
			<point x="897" y="287"/>
			<point x="793" y="258"/>
			<point x="682" y="258" type="curve" smooth="yes"/>
			<point x="571" y="258"/>
			<point x="494" y="311"/>
			<point x="483" y="440" type="curve"/>
			<point x="852" y="440" type="line"/>
			<point x="852" y="686" type="line"/>
			<point x="481" y="686" type="line"/>
			<point x="492" y="815"/>
			<point x="565" y="874"/>
			<point x="659" y="874" type="curve" smooth="yes"/>
			<point x="743" y="874"/>
			<point x="844" y="852"/>
			<point x="946" y="805" type="curve"/>
			<point x="1059" y="1069" type="line"/>
			<point x="930" y="1124"/>
			<point x="799" y="1153"/>
			<point x="666" y="1153" type="curve" smooth="yes"/>
			<point x="324" y="1153"/>
			<point x="86" y="985"/>
			<point x="86" y="559" type="curve" smooth="yes"/>
			<point x="86" y="152"/>
			<point x="303" y="-20"/>
		</contour>
	</outline>
	<anchor name="bottom" x="555" y="0"/>
	<anchor name="top" x="555" y="1133"/>
</glyph>
<glyph name="afii10050" format="2">
	<unicode hex="0490"/>
	<advance width="1243"/>
	<outline>
		<contour>
			<point x="1206" y="1776" type="line"/>
			<point x="860" y="1776" type="line"/>
			<point x="860" y="1462" type="line"/>
			<point x="158" y="1462" type="line"/>
			<point x="158" y="0" type="line"/>
			<point x="555" y="0" type="line"/>
			<point x="555" y="1143" type="line"/>
			<point x="1206" y="1143" type="line"/>
		</contour>
	</outline>
	<anchor name="bottom" x="623" y="0"/>
	<anchor name="top" x="623" y="1776"/>
</glyph>
<glyph name="uni049C" format="2">
	<unicode hex="049C"/>
	<advance width="1427"/>
	<outline>
		<component base="afii10028"/>
		<contour>
			<point x="827" y="123" type="line"/>
			<point x="827" y="1384" type="line"/>
			<point x="668" y="1384" type="line"/>
			<point x="668" y="123" type="line"/>
		</contour>
	</outline>
	<anchor name="bottom" x="715" y="0"/>
	<anchor name="top" x="715" y="1462"/>
</glyph>
<glyph name="uni04A1" format="2">
	<unicode hex="04A1"/>
	<advance width="1657"/>
	<outline>
		<contour>
			<point x="1632" y="1133" type="line"/>
			<point x="1200" y="1133" type="line"/>
			<point x="799" y="584" type="line"/>
			<point x="799" y="1133" type="line"/>
			<point x="49" y="1133" type="line"/>
			<point x="49" y="842" type="line"/>
			<point x="408" y="842" type="line"/>
			<point x="408" y="0" type="line"/>
			<point x="799" y="0" type="line"/>
			<point x="799" y="575" type="line"/>
			<point x="1219" y="0" type="line"/>
			<point x="1665" y="0" type="line"/>
			<point x="1208" y="590" type="line"/>
		</contour>
	</outline>
	<anchor name="bottom" x="829" y="0"/>
	<anchor name="top" x="829" y="1133"/>
</glyph>
<glyph name="uni04AC" format="2">
	<unicode hex="04AC"/>
	<advance width="1210"/>
	<outline>
		<contour>
			<point x="705" y="-455" type="line"/>
			<point x="1090" y="-455" type="line"/>
			<point x="1090" y="324" type="line"/>
			<point x="803" y="324" type="line"/>
			<point x="803" y="1139" type="line"/>
			<point x="1159" y="1139" type="line"/>
			<point x="1159" y="1462" type="line"/>
			<point x="51" y="1462" type="line"/>
			<point x="51" y="1139" type="line"/>
			<point x="408" y="1139" type="line"/>
			<point x="408" y="0" type="line"/>
			<point x="705" y="0" type="line"/>
		</contour>
	</outline>
	<anchor name="bottom" x="606" y="-455"/>
	<anchor name="top" x="606" y="1462"/>
</glyph>
<glyph name="uni04AF" format="2">
	<unicode hex="04AF"/>
	<advance width="1251"/>
	<outline>
		<contour>
			<point x="821" y="-492" type="line"/>
			<point x="821" y="4" type="line"/>
			<point x="1251" y="1133" type="line"/>
			<point x="844" y="1133" type="line"/>
			<point x="643" y="461" type="line"/>
			<point x="637" y="438"/>
			<point x="627" y="393"/>
			<point x="627" y="348" type="curve"/>
			<point x="618" y="348" type="line"/>
			<point x="618" y="391"/>
			<point x="604" y="451"/>
			<point x="600" y="463" type="curve"/>
			<point x="408" y="1133" type="line"/>
			<point x="0" y="1133" type="line"/>
			<point x="430" y="4" type="line"/>
			<point x="430" y="-492" type="line"/>
		</contour>
	</outline>
	<anchor name="bottom" x="627" y="-492"/>
	<anchor name="top" x="627" y="1133"/>
</glyph>
<glyph name="uni04CA" format="2">
	<unicode hex="04CA"/>
	<advance width="1497"/>
	<outline>
		<contour>
			<point x="135" y="0" type="line"/>
			<point x="526" y="0" type="line"/>
			<point x="526" y="434" type="line"/>
			<point x="836" y="434" type="line"/>
			<point x="836" y="0" type="line"/>
			<point x="1110" y="0" type="line"/>
			<point x="965" y="-416" type="line"/>
			<point x="1329" y="-416" type="line"/>
			<point x="1485" y="272" type="line"/>
			<point x="1227" y="272" type="line"/>
			<point x="1227" y="1133" type="line"/>
			<point x="836" y="1133" type="line"/>
			<point x="836" y="725" type="line"/>
			<point x="526" y="725" type="line"/>
			<point x="526" y="1133" type="line"/>
			<point x="135" y="1133" type="line"/>
		</contour>
	</outline>
	<anchor name="bottom" x="750" y="-416"/>
	<anchor name="top" x="750" y="1133"/>
</glyph>
<glyph name="uni051F" format="2">
	<unicode hex="051F"/>
	<advance width="1415"/>
	<outline>
		<component base="afii10076"/>
		<contour>
			<point x="645" y="1012" type="line"/>
			<point x="1108" y="514" type="line"/>
			<point x="1288" y="680" type="line"/>
			<point x="823" y="1180" type="line"/>
		</contour>
	</outline>
	<anchor name="bottom" x="709" y="0"/>
	<anchor name="top" x="709" y="1133"/>
</glyph>
<glyph name="uni0525" format="2">
	<unicode hex="0525"/>
	<advance width="1589"/>
	<outline>
		<contour>
			<point x="1565" y="281" type="line"/>
			<point x="1233" y="281" type="line"/>
			<point x="1233" y="1133" type="line"/>
			<point x="150" y="1133" type="line"/>
			<point x="150" y="0" type="line"/>
			<point x="547" y="0" type="line"/>
			<point x="547" y="842" type="line"/>
			<point x="834" y="842" type="line"/>
			<point x="834" y="0" type="line"/>
			<point x="1212" y="0" type="line"/>
			<point x="1212" y="-416" type="line"/>
			<point x="1565" y="-416" type="line"/>
		</contour>
	</outline>
	<anchor name="bottom" x="692" y="-416"/>
	<anchor name="top" x="692" y="1133"/>
</glyph>
<glyph name="uni052B" format="2">
	<unicode hex="052B"/>
	<advance width="2893"/>
	<outline>
		<component base="afii10069"/>
		<component base="afii10076" xOffset="1509"/>
		<contour>
			<point x="1159" y="715" type="line"/>
			<point x="1159" y="449" type="line"/>
			<point x="1737" y="449" type="line"/>
			<point x="1737" y="715" type="line"/>
		</contour>
	</outline>
	<anchor name="bottom" x="1448" y="-416"/>
	<anchor name="top" x="1448" y="1133"/>
</glyph>
<glyph name="uni1C84" format="2">
	<unicode hex="1C84"/>
	<advance width="975"/>
	<outline>
		<contour>
			<point x="883" y="1462" type="line"/>
			<point x="-121" y="1462" type="line"/>
			<point x="-121" y="1171" type="line"/>
			<point x="446" y="1171" type="line"/>
			<point x="262" y="0" type="line"/>
			<point x="653" y="0" type="line"/>
		</contour>
	</outline>
	<anchor name="bottom" x="487" y="0"/>
	<anchor name="top" x="487" y="1462"/>
</glyph>
<glyph name="uni1D03" format="2">
	<unicode hex="1D03"/>
	<advance width="1288"/>
	<outline>
		<component base="uni0299"/>
		<contour>
			<point x="1278" y="694" type="line"/>
			<point x="29" y="694" type="line"/>
			<point x="29" y="471" type="line"/>
			<point x="1278" y="471" type="line"/>
		</contour>
	</outline>
	<anchor name="bottom" x="582" y="0"/>
	<anchor name="top" x="582" y="1133"/>
</glyph>
<glyph name="uni1D17" format="2">
	<unicode hex="1D17"/>
	<advance width="1296"/>
	<outline>
		<contour>
			<point x="1214" y="553" type="curve"/>
			<point x="815" y="553" type="line"/>
			<point x="813" y="365"/>
			<point x="766" y="291"/>
			<point x="649" y="291" type="curve" smooth="yes"/>
			<point x="528" y="291"/>
			<point x="481" y="367"/>
			<point x="479" y="553" type="curve"/>
			<point x="80" y="553" type="line"/>
			<point x="86" y="174"/>
			<point x="324" y="-20"/>
			<point x="645" y="-20" type="curve" smooth="yes"/>
			<point x="981" y="-20"/>
			<point x="1208" y="174"/>
		</contour>
	</outline>
	<anchor name="bottom" x="649" y="0"/>
	<anchor name="top" x="649" y="553"/>
</glyph>
<glyph name="uni1D1B" format="2">
	<unicode hex="1D1B"/>
	<advance width="944"/>
	<outline>
		<contour>
			<point x="627" y="0" type="line"/>
			<point x="627" y="877" type="line"/>
			<point x="903" y="877" type="line"/>
			<point x="903" y="1126" type="line"/>
			<point x="41" y="1126" type="line"/>
			<point x="41" y="877" type="line"/>
			<point x="317" y="877" type="line"/>
			<point x="317" y="0" type="line"/>
		</contour>
	</outline>
	<anchor name="bottom" x="473" y="0"/>
	<anchor name="top" x="473" y="1133"/>
</glyph>
<glyph name="uni1D1D" format="2">
	<unicode hex="1D1D"/>
	<advance width="1229"/>
	<outline>
		<contour>
			<point x="1231" y="409" type="curve" smooth="yes"/>
			<point x="1231" y="569"/>
			<point x="1168" y="684"/>
			<point x="1061" y="755" type="curve"/>
			<point x="1061" y="770" type="line"/>
			<point x="1211" y="823" type="line"/>
			<point x="1211" y="1118" type="line"/>
			<point x="78" y="1118" type="line"/>
			<point x="78" y="727" type="line"/>
			<point x="574" y="727" type="line" smooth="yes"/>
			<point x="799" y="727"/>
			<point x="924" y="688"/>
			<point x="924" y="540" type="curve" smooth="yes"/>
			<point x="924" y="444"/>
			<point x="846" y="403"/>
			<point x="696" y="403" type="curve" smooth="yes"/>
			<point x="78" y="403" type="line"/>
			<point x="78" y="12" type="line"/>
			<point x="815" y="12" type="line" smooth="yes"/>
			<point x="1106" y="12"/>
			<point x="1231" y="176"/>
		</contour>
	</outline>
	<anchor name="bottom" x="614" y="0"/>
	<anchor name="top" x="614" y="1133"/>
</glyph>
<glyph name="uni1D7C" format="2">
	<unicode hex="1D7C"/>
	<advance width="891"/>
	<outline>
		<component base="iota"/>
		<contour>
			<point x="739" y="731" type="line"/>
			<point x="-6" y="731" type="line"/>
			<point x="-6" y="498" type="line"/>
			<point x="739" y="498" type="line"/>
		</contour>
	</outline>
	<anchor name="bottom" x="500" y="0"/>
	<anchor name="top" x="344" y="1133"/>
</glyph>
<glyph name="uni1D7F" format="2">
	<unicode hex="1D7F"/>
	<advance width="1401"/>
	<outline>
		<component base="uni028A"/>
		<contour>
			<point x="1395" y="680" type="line"/>
			<point x="6" y="680" type="line"/>
			<point x="6" y="446" type="line"/>
			<point x="1395" y="446" type="line"/>
		</contour>
	</outline>
</glyph>
<glyph name="gravemacron" format="2">
	<unicode hex="1DC5"/>
	<outline>
		<contour>
			<point x="303" y="1206" type="line"/>
			<point x="303" y="1419" type="line"/>
			<point x="14" y="1419" type="line"/>
			<point x="-227" y="1550" type="line"/>
			<point x="-326" y="1368" type="line"/>
			<point x="-31" y="1206" type="line"/>
		</contour>
	</outline>
	<anchor name="_top" x="-12" y="1133"/>
	<anchor name="top" x="-8" y="1550"/>
</glyph>
<glyph name="macronbreve" format="2">
	<unicode hex="1DCC"/>
	<outline>
		<contour>
			<point x="-657" y="1612" type="line"/>
			<point x="-1323" y="1612" type="line"/>
			<point x="-1323" y="1376" type="line"/>
			<point x="-657" y="1376" type="line"/>
		</contour>
		<contour>
			<point x="-805" y="1612" type="line"/>
			<point x="-795" y="1370"/>
			<point x="-664" y="1223"/>
			<point x="-403" y="1221" type="curve"/>
			<point x="-156" y="1223"/>
			<point x="-10" y="1376"/>
			<point x="4" y="1612" type="curve"/>
			<point x="-215" y="1612" type="line"/>
			<point x="-244" y="1491"/>
			<point x="-315" y="1462"/>
			<point x="-403" y="1460" type="curve"/>
			<point x="-516" y="1462"/>
			<point x="-565" y="1481"/>
			<point x="-594" y="1612" type="curve"/>
		</contour>
	</outline>
	<anchor name="_top" x="-659" y="1133"/>
	<anchor name="top" x="-655" y="1612"/>
</glyph>
<glyph name="longsdiagonalstroke" format="2">
	<unicode hex="1E9C"/>
	<advance width="825"/>
	<outline>
		<component base="longs"/>
		<contour>
			<point x="-18" y="686" type="line"/>
			<point x="90" y="461" type="line"/>
			<point x="811" y="817" type="line"/>
			<point x="702" y="1042" type="line"/>
		</contour>
	</outline>
	<anchor name="bottom" x="414" y="0"/>
	<anchor name="top" x="414" y="1567"/>
</glyph>
<glyph name="uni1FBD" format="2">
	<unicode hex="1FBD"/>
	<advance width="561"/>
	<outline>
		<contour>
			<point x="113" y="1219" type="line"/>
			<point x="344" y="1223"/>
			<point x="453" y="1321"/>
			<point x="453" y="1473" type="curve" smooth="yes"/>
			<point x="453" y="1565"/>
			<point x="385" y="1634"/>
			<point x="281" y="1634" type="curve" smooth="yes"/>
			<point x="188" y="1634"/>
			<point x="131" y="1595"/>
			<point x="131" y="1524" type="curve" smooth="yes"/>
			<point x="131" y="1454"/>
			<point x="172" y="1413"/>
			<point x="268" y="1411" type="curve"/>
			<point x="268" y="1358"/>
			<point x="199" y="1319"/>
			<point x="113" y="1315" type="curve"/>
		</contour>
	</outline>
	<anchor name="_top" x="287" y="1133"/>
</glyph>
<glyph name="quotedblbase" format="2">
	<unicode hex="201E"/>
	<advance width="1143"/>
	<outline>
		<contour>
			<point x="1010" y="297" type="line"/>
			<point x="668" y="297" type="line"/>
			<point x="650" y="133"/>
			<point x="609" y="-100"/>
			<point x="570" y="-286" type="curve"/>
			<point x="848" y="-286" type="line"/>
			<point x="916" y="-135"/>
			<point x="988" y="127"/>
			<point x="1024" y="275" type="curve"/>
		</contour>
		<contour>
			<point x="500" y="297" type="line"/>
			<point x="158" y="297" type="line"/>
			<point x="140" y="133"/>
			<point x="99" y="-100"/>
			<point x="60" y="-286" type="curve"/>
			<point x="338" y="-286" type="line"/>
			<point x="406" y="-135"/>
			<point x="478" y="127"/>
			<point x="515" y="275" type="curve"/>
		</contour>
	</outline>
</glyph>
<glyph name="uniA735" format="2">
	<unicode hex="A735"/>
	<advance width="1973"/>
	<outline>
		<contour>
			<point x="688" y="1153" type="curve" smooth="yes"/>
			<point x="483" y="1153"/>
			<point x="319" y="1118"/>
			<point x="188" y="1051" type="curve"/>
			<point x="301" y="793" type="line"/>
			<point x="412" y="842"/>
			<point x="526" y="877"/>
			<point x="616" y="877" type="curve" smooth="yes"/>
			<point x="700" y="877"/>
			<point x="754" y="838"/>
			<point x="754" y="737" type="curve" smooth="yes"/>
			<point x="754" y="721" type="line"/>
			<point x="565" y="715" type="line"/>
			<point x="246" y="700"/>
			<point x="74" y="588"/>
			<point x="74" y="346" type="curve" smooth="yes"/>
			<point x="74" y="98"/>
			<point x="221" y="-20"/>
			<point x="449" y="-20" type="curve" smooth="yes"/>
			<point x="641" y="-20"/>
			<point x="748" y="39"/>
			<point x="862" y="182" type="curve"/>
			<point x="1147" y="182" type="line"/>
			<point x="1145" y="743" type="line"/>
			<point x="1145" y="1006"/>
			<point x="975" y="1153"/>
		</contour>
		<contour>
			<point x="756" y="506" type="line"/>
			<point x="756" y="418" type="line" smooth="yes"/>
			<point x="756" y="322"/>
			<point x="678" y="256"/>
			<point x="584" y="256" type="curve" smooth="yes"/>
			<point x="516" y="256"/>
			<point x="473" y="283"/>
			<point x="473" y="360" type="curve" smooth="yes"/>
			<point x="473" y="442"/>
			<point x="522" y="496"/>
			<point x="666" y="502" type="curve" smooth="yes"/>
		</contour>
		<contour>
			<point x="1885" y="569" type="curve" smooth="yes"/>
			<point x="1885" y="944"/>
			<point x="1649" y="1153"/>
			<point x="1323" y="1153" type="curve" smooth="yes"/>
			<point x="969" y="1153"/>
			<point x="754" y="944"/>
			<point x="754" y="569" type="curve" smooth="yes"/>
			<point x="754" y="190"/>
			<point x="990" y="-20"/>
			<point x="1317" y="-20" type="curve" smooth="yes"/>
			<point x="1669" y="-20"/>
			<point x="1885" y="190"/>
		</contour>
		<contour>
			<point x="1151" y="569" type="curve" smooth="yes"/>
			<point x="1151" y="762"/>
			<point x="1200" y="862"/>
			<point x="1319" y="862" type="curve" smooth="yes"/>
			<point x="1442" y="862"/>
			<point x="1487" y="762"/>
			<point x="1487" y="569" type="curve" smooth="yes"/>
			<point x="1487" y="375"/>
			<point x="1442" y="270"/>
			<point x="1321" y="270" type="curve" smooth="yes"/>
			<point x="1198" y="270"/>
			<point x="1151" y="375"/>
		</contour>
	</outline>
	<anchor name="bottom" x="936" y="6"/>
	<anchor name="top" x="963" y="1133"/>
</glyph>
<glyph name="uniA741" format="2">
	<unicode hex="A741"/>
	<advance width="1350"/>
	<outline>
		<contour>
			<point x="780" y="1409" type="line"/>
			<point x="0" y="1409" type="line"/>
			<point x="0" y="1167" type="line"/>
			<point x="780" y="1167" type="line"/>
		</contour>
		<contour>
			<point x="528" y="1556" type="line"/>
			<point x="135" y="1556" type="line"/>
			<point x="135" y="0" type="line"/>
			<point x="528" y="0" type="line"/>
			<point x="528" y="309" type="line"/>
			<point x="655" y="406" type="line"/>
			<point x="903" y="0" type="line"/>
			<point x="1350" y="0" type="line"/>
			<point x="932" y="651" type="line"/>
			<point x="1325" y="1133" type="line"/>
			<point x="889" y="1133" type="line"/>
			<point x="635" y="813" type="line" smooth="yes"/>
			<point x="598" y="766"/>
			<point x="545" y="684"/>
			<point x="514" y="637" type="curve"/>
			<point x="506" y="637" type="line"/>
			<point x="520" y="729"/>
			<point x="528" y="852"/>
			<point x="528" y="944" type="curve" smooth="yes"/>
		</contour>
	</outline>
	<anchor name="bottom" x="676" y="0"/>
	<anchor name="top" x="334" y="1556"/>
</glyph>
<glyph name="uniA743" format="2">
	<unicode hex="A743"/>
	<advance width="1350"/>
	<outline>
		<component base="k"/>
		<contour>
			<point x="582" y="213" type="line"/>
			<point x="735" y="18" type="line"/>
			<point x="1272" y="436" type="line"/>
			<point x="1118" y="631" type="line"/>
		</contour>
	</outline>
	<anchor name="bottom" x="676" y="0"/>
	<anchor name="top" x="334" y="1556"/>
</glyph>
<glyph name="uniA7A1" format="2">
	<unicode hex="A7A1"/>
	<advance width="1241"/>
	<outline>
		<component base="g.salt"/>
		<contour>
			<point x="0" y="621" type="line"/>
			<point x="0" y="401" type="line"/>
			<point x="1315" y="541" type="line"/>
			<point x="1315" y="760" type="line"/>
		</contour>
	</outline>
</glyph>
<glyph name="uniA7A8" format="2">
	<unicode hex="A7A8"/>
	<advance width="1182"/>
	<outline>
		<component base="S"/>
		<contour>
			<point x="6" y="799" type="line"/>
			<point x="6" y="578" type="line"/>
			<point x="1169" y="776" type="line"/>
			<point x="1169" y="999" type="line"/>
		</contour>
	</outline>
	<anchor name="bottom" x="592" y="0"/>
	<anchor name="top" x="592" y="1462"/>
</glyph>
<glyph name="uniA7A9" format="2">
	<unicode hex="A7A9"/>
	<advance width="1092"/>
	<outline>
		<component base="s"/>
		<contour>
			<point x="6" y="633" type="line"/>
			<point x="6" y="414" type="line"/>
			<point x="1067" y="557" type="line"/>
			<point x="1067" y="778" type="line"/>
		</contour>
	</outline>
	<anchor name="bottom" x="514" y="0"/>
	<anchor name="top" x="514" y="1133"/>
</glyph>
<glyph name="uniA7AE" format="2">
	<unicode hex="A7AE"/>
	<advance width="1286"/>
	<outline>
		<contour>
			<point x="1225" y="1462" type="line"/>
			<point x="61" y="1462" type="line"/>
			<point x="61" y="1278" type="line"/>
			<point x="446" y="1161" type="line"/>
			<point x="446" y="301" type="line"/>
			<point x="61" y="184" type="line"/>
			<point x="61" y="0" type="line"/>
			<point x="1225" y="0" type="line"/>
			<point x="1225" y="184" type="line"/>
			<point x="836" y="301" type="line"/>
			<point x="836" y="1161" type="line"/>
			<point x="1225" y="1278" type="line"/>
		</contour>
	</outline>
	<anchor name="bottom" x="645" y="0"/>
	<anchor name="top" x="645" y="1462"/>
</glyph>
<glyph name="uniAB41" format="2">
	<unicode hex="AB41"/>
	<advance width="2007"/>
	<outline>
		<component base="oe" xScale="-1" yScale="-1" xOffset="2007" yOffset="1133"/>
		<contour>
			<point x="1124" y="-102" type="line"/>
			<point x="1737" y="1133" type="line"/>
			<point x="1573" y="1219" type="line"/>
			<point x="958" y="-20" type="line"/>
		</contour>
	</outline>
</glyph>
<glyph name="combiningconjoiningmacron" format="2">
	<unicode hex="FE26"/>
	<outline>
		<contour>
			<point x="-727" y="1479" type="line"/>
			<point x="-727" y="1241" type="line"/>
			<point x="727" y="1241" type="line"/>
			<point x="727" y="1479" type="line"/>
		</contour>
	</outline>
	<anchor name="_top" x="0" y="1133"/>
</glyph>
<glyph name="afii10068.loclBGR" format="2">
	<advance width="1079"/>
	<outline>
		<contour>
			<point x="86" y="348" type="curve" smooth="yes"/>
			<point x="86" y="547"/>
			<point x="199.038" y="631.41"/>
			<point x="397" y="709" type="curve" smooth="yes"/>
			<point x="584.762" y="782.593"/>
			<point x="624" y="799"/>
			<point x="624" y="842" type="curve" smooth="yes"/>
			<point x="624" y="872"/>
			<point x="589" y="889"/>
			<point x="528" y="889" type="curve" smooth="yes"/>
			<point x="460" y="889"/>
			<point x="343" y="856"/>
			<point x="231" y="805" type="curve"/>
			<point x="124" y="1057" type="line"/>
			<point x="266" y="1120"/>
			<point x="381" y="1153"/>
			<point x="530" y="1153" type="curve" smooth="yes"/>
			<point x="811" y="1153"/>
			<point x="997" y="1040"/>
			<point x="997" y="819" type="curve" smooth="yes"/>
			<point x="997" y="633"/>
			<point x="925.073" y="553.824"/>
			<point x="736" y="477" type="curve" smooth="yes"/>
			<point x="545.72" y="399.685"/>
			<point x="475" y="371"/>
			<point x="475" y="322" type="curve" smooth="yes"/>
			<point x="475" y="283"/>
			<point x="514" y="264"/>
			<point x="602" y="264" type="curve" smooth="yes"/>
			<point x="688" y="264"/>
			<point x="832" y="291"/>
			<point x="975" y="356" type="curve"/>
			<point x="975" y="43" type="line"/>
			<point x="844" y="-6"/>
			<point x="727" y="-20"/>
			<point x="565" y="-20" type="curve" smooth="yes"/>
			<point x="221" y="-20"/>
			<point x="86" y="133"/>
		</contour>
	</outline>
	<anchor name="bottom" x="559" y="0"/>
	<anchor name="top" x="559" y="1133"/>
</glyph>
<glyph name="afii10076.loclBGR" format="2">
	<advance width="1384"/>
	<outline>
		<contour>
			<point x="928" y="1133" type="line"/>
			<point x="526" y="584" type="line"/>
			<point x="526" y="1556" type="line"/>
			<point x="135" y="1556" type="line"/>
			<point x="135" y="0" type="line"/>
			<point x="526" y="0" type="line"/>
			<point x="526" y="575" type="line"/>
			<point x="946" y="0" type="line"/>
			<point x="1393" y="0" type="line"/>
			<point x="936" y="590" type="line"/>
			<point x="1360" y="1133" type="line"/>
		</contour>
	</outline>
	<anchor name="bottom" x="692" y="0"/>
	<anchor name="top" x="727" y="1133"/>
</glyph>
<glyph name="f.sc" format="2">
	<advance width="938"/>
	<outline>
		<contour>
			<point x="123" y="1210" type="line"/>
			<point x="123" y="0" type="line"/>
			<point x="506" y="0" type="line"/>
			<point x="506" y="432" type="line"/>
			<point x="827" y="432" type="line"/>
			<point x="827" y="729" type="line"/>
			<point x="506" y="729" type="line"/>
			<point x="506" y="913" type="line"/>
			<point x="858" y="913" type="line"/>
			<point x="858" y="1210" type="line"/>
		</contour>
	</outline>
	<anchor name="bottom" x="469" y="0"/>
	<anchor name="top" x="477" y="1210"/>
	<anchor name="topright" x="897" y="1210"/>
</glyph>
<glyph name="five.numr" format="2">
	<advance width="817"/>
	<outline>
		<contour>
			<point x="682" y="1471" type="line"/>
			<point x="147" y="1471" type="line"/>
			<point x="109" y="1014" type="line"/>
			<point x="248" y="971" type="line"/>
			<point x="274" y="983"/>
			<point x="332" y="985"/>
			<point x="338" y="985" type="curve" smooth="yes"/>
			<point x="430" y="985"/>
			<point x="479" y="953"/>
			<point x="479" y="883" type="curve" smooth="yes"/>
			<point x="479" y="803"/>
			<point x="418" y="776"/>
			<point x="328" y="776" type="curve" smooth="yes"/>
			<point x="256" y="776"/>
			<point x="158" y="809"/>
			<point x="96" y="852" type="curve"/>
			<point x="96" y="621" type="line"/>
			<point x="166" y="586"/>
			<point x="260" y="572"/>
			<point x="358" y="572" type="curve" smooth="yes"/>
			<point x="612" y="572"/>
			<point x="754" y="686"/>
			<point x="754" y="883" type="curve" smooth="yes"/>
			<point x="754" y="1067"/>
			<point x="614" y="1166"/>
			<point x="438" y="1166" type="curve" smooth="yes"/>
			<point x="391" y="1166"/>
			<point x="352" y="1159"/>
			<point x="328" y="1157" type="curve"/>
			<point x="342" y="1256" type="line"/>
			<point x="682" y="1256" type="line"/>
		</contour>
	</outline>
</glyph>
<glyph name="i.sc" format="2">
	<advance width="809"/>
	<outline>
		<contour>
			<point x="51" y="0" type="line"/>
			<point x="758" y="0" type="line"/>
			<point x="758" y="217" type="line"/>
			<point x="600" y="285" type="line"/>
			<point x="600" y="928" type="line"/>
			<point x="758" y="993" type="line"/>
			<point x="758" y="1210" type="line"/>
			<point x="51" y="1210" type="line"/>
			<point x="51" y="993" type="line"/>
			<point x="209" y="928" type="line"/>
			<point x="209" y="285" type="line"/>
			<point x="51" y="217" type="line"/>
		</contour>
	</outline>
	<anchor name="bottom" x="406" y="0"/>
	<anchor name="top" x="406" y="1210"/>
	<anchor name="topright" x="768" y="1210"/>
</glyph>
<glyph name="imoddotless" format="2">
	<advance width="432"/>
	<outline>
		<contour>
			<point x="344" y="1268" type="line"/>
			<point x="90" y="1268" type="line"/>
			<point x="90" y="588" type="line"/>
			<point x="344" y="588" type="line"/>
		</contour>
	</outline>
	<anchor name="bottom" x="221" y="588"/>
	<anchor name="top" x="217" y="1270"/>
	<anchor name="topright" x="406" y="1270"/>
</glyph>
<glyph name="macroncomb.sc" format="2">
	<advance width="1233"/>
	<outline>
		<contour>
			<point x="231" y="1614" type="line"/>
			<point x="231" y="1337" type="line"/>
			<point x="1001" y="1337" type="line"/>
			<point x="1001" y="1614" type="line"/>
		</contour>
	</outline>
	<anchor name="_top" x="616" y="1210"/>
	<anchor name="top" x="621" y="1614"/>
</glyph>
<glyph name="six.dnom" format="2">
	<advance width="817"/>
	<outline>
		<contour>
			<point x="561" y="897" type="curve" smooth="yes"/>
			<point x="129" y="897"/>
			<point x="49" y="627"/>
			<point x="49" y="369" type="curve" smooth="yes"/>
			<point x="49" y="113"/>
			<point x="201" y="-23"/>
			<point x="426" y="-23" type="curve" smooth="yes"/>
			<point x="637" y="-23"/>
			<point x="766" y="96"/>
			<point x="766" y="295" type="curve" smooth="yes"/>
			<point x="766" y="473"/>
			<point x="678" y="565"/>
			<point x="530" y="565" type="curve" smooth="yes"/>
			<point x="434" y="565"/>
			<point x="381" y="534"/>
			<point x="342" y="479" type="curve"/>
			<point x="332" y="479" type="line"/>
			<point x="338" y="608"/>
			<point x="403" y="678"/>
			<point x="575" y="678" type="curve" smooth="yes"/>
			<point x="633" y="678"/>
			<point x="670" y="674"/>
			<point x="702" y="670" type="curve"/>
			<point x="702" y="887" type="line"/>
			<point x="664" y="893"/>
			<point x="600" y="897"/>
		</contour>
		<contour>
			<point x="410" y="393" type="curve" smooth="yes"/>
			<point x="457" y="393"/>
			<point x="485" y="358"/>
			<point x="485" y="295" type="curve" smooth="yes"/>
			<point x="485" y="221"/>
			<point x="461" y="186"/>
			<point x="399" y="186" type="curve" smooth="yes"/>
			<point x="340" y="186"/>
			<point x="315" y="250"/>
			<point x="315" y="303" type="curve" smooth="yes"/>
			<point x="315" y="350"/>
			<point x="346" y="393"/>
		</contour>
	</outline>
</glyph>
<glyph name="subscriptjdotless" format="2">
	<advance width="432"/>
	<outline>
		<contour>
			<point x="70" y="-492" type="curve" smooth="yes"/>
			<point x="272" y="-492"/>
			<point x="342" y="-375"/>
			<point x="342" y="-252" type="curve" smooth="yes"/>
			<point x="342" y="483" type="line"/>
			<point x="88" y="483" type="line"/>
			<point x="88" y="-203" type="line" smooth="yes"/>
			<point x="88" y="-285"/>
			<point x="51" y="-305"/>
			<point x="10" y="-305" type="curve" smooth="yes"/>
			<point x="-18" y="-305"/>
			<point x="-41" y="-301"/>
			<point x="-68" y="-293" type="curve"/>
			<point x="-68" y="-477" type="line"/>
			<point x="-33" y="-485"/>
			<point x="29" y="-492"/>
		</contour>
	</outline>
	<anchor name="bottom" x="70" y="-492"/>
	<anchor name="top" x="215" y="483"/>
	<anchor name="topright" x="406" y="483"/>
</glyph>
<glyph name="t.sc" format="2">
	<advance width="1042"/>
	<outline>
		<contour>
			<point x="991" y="1210" type="line"/>
			<point x="51" y="1210" type="line"/>
			<point x="51" y="897" type="line"/>
			<point x="328" y="897" type="line"/>
			<point x="328" y="0" type="line"/>
			<point x="715" y="0" type="line"/>
			<point x="715" y="897" type="line"/>
			<point x="991" y="897" type="line"/>
		</contour>
	</outline>
	<anchor name="bottom" x="522" y="0"/>
	<anchor name="center" x="522" y="606"/>
	<anchor name="top" x="520" y="1210"/>
	<anchor name="topright" x="1001" y="1210"/>
</glyph>
<glyph name="three.numr" format="2">
	<advance width="817"/>
	<outline>
		<contour>
			<point x="406" y="1481" type="curve" smooth="yes"/>
			<point x="260" y="1481"/>
			<point x="145" y="1430"/>
			<point x="63" y="1366" type="curve"/>
			<point x="180" y="1196" type="line"/>
			<point x="250" y="1250"/>
			<point x="305" y="1270"/>
			<point x="371" y="1270" type="curve" smooth="yes"/>
			<point x="438" y="1270"/>
			<point x="463" y="1235"/>
			<point x="463" y="1202" type="curve" smooth="yes"/>
			<point x="463" y="1159"/>
			<point x="436" y="1125"/>
			<point x="324" y="1125" type="curve" smooth="yes"/>
			<point x="244" y="1125" type="line"/>
			<point x="244" y="930" type="line"/>
			<point x="348" y="930" type="line" smooth="yes"/>
			<point x="469" y="930"/>
			<point x="483" y="895"/>
			<point x="483" y="858" type="curve" smooth="yes"/>
			<point x="483" y="809"/>
			<point x="436" y="791"/>
			<point x="367" y="791" type="curve" smooth="yes"/>
			<point x="260" y="791"/>
			<point x="156" y="813"/>
			<point x="70" y="873" type="curve"/>
			<point x="70" y="639" type="line"/>
			<point x="152" y="592"/>
			<point x="260" y="570"/>
			<point x="379" y="570" type="curve" smooth="yes"/>
			<point x="612" y="570"/>
			<point x="754" y="660"/>
			<point x="754" y="824" type="curve" smooth="yes"/>
			<point x="754" y="938"/>
			<point x="692" y="1006"/>
			<point x="563" y="1039" type="curve"/>
			<point x="563" y="1047" type="line"/>
			<point x="680" y="1090"/>
			<point x="725" y="1164"/>
			<point x="725" y="1266" type="curve" smooth="yes"/>
			<point x="725" y="1395"/>
			<point x="608" y="1481"/>
		</contour>
	</outline>
</glyph>
<glyph name="uni0268dotless" format="2">
	<advance width="666"/>
	<outline>
		<component base="idotless"/>
		<contour>
			<point x="676" y="690" type="line"/>
			<point x="-10" y="690" type="line"/>
			<point x="-10" y="442" type="line"/>
			<point x="676" y="442" type="line"/>
		</contour>
	</outline>
	<anchor name="bottom" x="340" y="0"/>
	<anchor name="top" x="334" y="1133"/>
</glyph>
<glyph name="uni1D96dotless" format="2">
	<advance width="688"/>
	<outline>
		<contour>
			<point x="537" y="1130" type="line"/>
			<point x="150" y="1130" type="line"/>
			<point x="150" y="0" type="line"/>
			<point x="334" y="0" type="line"/>
			<point x="334" y="-166" type="line" smooth="yes"/>
			<point x="334" y="-406"/>
			<point x="453" y="-514"/>
			<point x="645" y="-514" type="curve" smooth="yes"/>
			<point x="717" y="-514"/>
			<point x="791" y="-502"/>
			<point x="848" y="-485" type="curve"/>
			<point x="848" y="-225" type="line"/>
			<point x="813" y="-238"/>
			<point x="782" y="-244"/>
			<point x="748" y="-244" type="curve" smooth="yes"/>
			<point x="680" y="-244"/>
			<point x="647" y="-217"/>
			<point x="647" y="-133" type="curve" smooth="yes"/>
			<point x="647" y="270" type="line"/>
			<point x="537" y="270" type="line"/>
		</contour>
	</outline>
	<anchor name="bottom" x="332" y="-514"/>
	<anchor name="top" x="332" y="1133"/>
</glyph>
<glyph name="uni1DA4dotless" format="2">
	<advance width="432"/>
	<outline>
		<contour>
			<point x="438" y="1001" type="line"/>
			<point x="-6" y="1001" type="line"/>
			<point x="-6" y="854" type="line"/>
			<point x="438" y="854" type="line"/>
		</contour>
		<contour>
			<point x="344" y="1268" type="line"/>
			<point x="90" y="1268" type="line"/>
			<point x="90" y="588" type="line"/>
			<point x="344" y="588" type="line"/>
		</contour>
	</outline>
	<anchor name="bottom" x="221" y="588"/>
	<anchor name="top" x="217" y="1268"/>
	<anchor name="topright" x="406" y="1268"/>
</glyph>
<glyph name="z.sc" format="2">
	<advance width="1061"/>
	<outline>
		<contour>
			<point x="47" y="0" type="line"/>
			<point x="1024" y="0" type="line"/>
			<point x="1024" y="309" type="line"/>
			<point x="526" y="309" type="line"/>
			<point x="1014" y="975" type="line"/>
			<point x="1014" y="1210" type="line"/>
			<point x="55" y="1210" type="line"/>
			<point x="55" y="901" type="line"/>
			<point x="532" y="901" type="line"/>
			<point x="47" y="233" type="line"/>
		</contour>
	</outline>
	<anchor name="bottom" x="530" y="0"/>
	<anchor name="top" x="530" y="1210"/>
	<anchor name="topright" x="1020" y="1210"/>
</glyph>
<glyph name="zero.numr" format="2">
	<advance width="817"/>
	<outline>
		<contour>
			<point x="401" y="563" type="curve" smooth="yes"/>
			<point x="659" y="563"/>
			<point x="776" y="738"/>
			<point x="776" y="1026" type="curve" smooth="yes"/>
			<point x="776" y="1313"/>
			<point x="645" y="1485"/>
			<point x="401" y="1485" type="curve" smooth="yes"/>
			<point x="152" y="1485"/>
			<point x="41" y="1315"/>
			<point x="41" y="1026" type="curve" smooth="yes"/>
			<point x="41" y="742"/>
			<point x="168" y="563"/>
		</contour>
		<contour>
			<point x="408" y="778" type="curve" smooth="yes"/>
			<point x="354" y="778"/>
			<point x="328" y="834"/>
			<point x="328" y="1024" type="curve" smooth="yes"/>
			<point x="328" y="1213"/>
			<point x="354" y="1266"/>
			<point x="408" y="1266" type="curve" smooth="yes"/>
			<point x="459" y="1266"/>
			<point x="489" y="1213"/>
			<point x="489" y="1022" type="curve" smooth="yes"/>
			<point x="489" y="832"/>
			<point x="459" y="778"/>
		</contour>
	</outline>
</glyph>
